<?xml version="1.0" encoding="UTF-8" standalone="no"?>
<!DOCTYPE svg PUBLIC "-//W3C//DTD SVG 1.1//EN" "http://www.w3.org/Graphics/SVG/1.1/DTD/svg11.dtd">
<svg xmlns="http://www.w3.org/2000/svg" version="1.1" viewBox="0.00 0.00 800.00 638.00">
<g stroke-width="2.00" fill="none" stroke-linecap="butt">
<path stroke="#7a7977" vector-effect="non-scaling-stroke" d="
  M 197.67 322.06
  Q 216.41 327.15 234.45 334.33
  Q 234.99 334.54 235.46 334.22
  Q 302.17 290.12 372.14 251.37
  A 2.43 2.40 83.4 0 0 373.29 249.90
  Q 377.21 235.14 381.38 220.35
  C 382.68 215.74 387.07 213.09 391.26 216.01
  C 394.97 218.58 394.11 222.06 392.91 226.33
  Q 390.82 233.82 388.90 241.52
  Q 388.75 242.11 389.29 241.83
  C 425.89 222.37 462.48 203.38 500.09 185.98
  A 0.29 0.28 -51.6 0 0 500.03 185.44
  C 471.77 179.56 442.92 181.16 414.85 187.27
  Q 406.53 189.08 398.18 190.98
  C 396.69 191.32 394.16 190.27 392.93 189.03
  C 356.40 152.31 306.85 123.25 253.30 125.50
  C 252.56 125.53 251.13 125.38 250.17 125.55
  Q 249.72 125.63 249.60 126.07
  L 197.19 321.22
  Q 197.01 321.88 197.67 322.06"
/>
<path stroke="#7a7977" vector-effect="non-scaling-stroke" d="
  M 234.27 130.98
  L 214.39 130.76
  Q 213.71 130.75 213.54 131.41
  L 151.75 361.64
  A 0.20 0.19 16.4 0 0 151.88 361.87
  L 181.55 371.12
  A 0.62 0.61 -53.9 0 0 182.09 371.03
  L 221.42 343.60
  Q 221.75 343.37 221.38 343.23
  Q 206.72 337.62 191.56 333.52
  C 186.72 332.21 181.45 330.37 183.08 324.32
  Q 208.96 228.06 234.79 131.66
  A 0.54 0.54 0.0 0 0 234.27 130.98"
/>
<path stroke="#7a7977" vector-effect="non-scaling-stroke" d="
  M 345.62 404.38
  C 394.97 385.74 451.93 390.39 501.42 403.42
  A 0.92 0.92 0.0 0 0 502.54 402.77
  L 554.91 207.70
  Q 555.05 207.21 554.61 206.93
  Q 538.86 196.83 521.12 190.83
  Q 520.65 190.67 520.19 190.88
  Q 451.70 222.17 385.69 258.40
  Q 384.08 259.28 383.75 260.51
  Q 364.53 332.23 345.21 404.01
  Q 345.06 404.59 345.62 404.38"
/>
<path stroke="#7a7977" vector-effect="non-scaling-stroke" d="
  M 197.35 377.19
  C 242.01 394.40 283.67 419.32 315.41 455.62
  Q 315.76 456.02 315.89 455.51
  Q 319.87 440.37 321.12 436.33
  C 322.63 431.42 327.29 428.56 332.30 430.45
  C 338.41 432.76 338.39 438.10 336.79 443.88
  Q 334.56 451.92 332.35 460.12
  Q 332.19 460.72 332.77 460.51
  C 391.96 438.92 461.09 445.39 521.02 460.79
  A 0.53 0.52 14.7 0 0 521.67 460.42
  L 583.42 230.50
  Q 583.57 229.95 583.07 229.67
  L 565.68 219.58
  A 0.47 0.46 -67.3 0 0 565.00 219.86
  Q 539.61 314.11 514.41 408.14
  C 512.97 413.49 511.74 419.11 504.43 417.19
  C 467.52 407.48 428.10 401.68 390.22 406.57
  C 374.31 408.62 359.89 411.86 345.02 418.55
  C 339.82 420.89 334.25 426.96 329.53 419.39
  C 309.48 387.25 271.70 363.27 237.32 349.54
  A 1.58 1.55 38.4 0 0 235.84 349.70
  L 197.26 376.41
  Q 196.56 376.89 197.35 377.19"
/>
<path stroke="#7a7977" vector-effect="non-scaling-stroke" d="
  M 250.16 340.93
  C 280.99 354.56 310.58 374.38 332.29 400.77
  Q 332.70 401.27 332.86 400.65
  L 368.24 268.74
  A 0.20 0.20 0.0 0 0 367.95 268.51
  Q 307.88 302.48 250.10 340.21
  Q 249.47 340.63 250.16 340.93"
/>
<path stroke="#7a7977" vector-effect="non-scaling-stroke" d="
  M 270.10 166.42
  C 262.72 160.60 255.60 168.85 260.47 174.53
  C 267.62 182.87 280.66 189.60 291.31 188.70
  C 298.36 188.10 303.14 189.04 308.52 193.42
  A 1.84 1.81 10.2 0 1 309.08 194.21
  C 311.31 200.43 315.11 202.59 321.72 204.28
  C 325.00 205.11 334.74 206.63 336.59 209.23
  C 339.48 213.28 345.89 220.48 351.18 220.81
  C 356.82 221.16 360.02 213.29 355.73 210.03
  C 353.45 208.30 351.33 206.87 349.47 204.59
  C 346.96 201.51 344.76 198.45 341.14 196.68
  C 335.29 193.81 328.70 193.00 322.50 191.52
  A 1.04 1.04 0.0 0 1 321.80 190.94
  C 316.59 179.42 303.67 174.77 291.64 175.65
  C 282.19 176.34 277.04 171.88 270.10 166.42"
/>
<path stroke="#7a7977" vector-effect="non-scaling-stroke" d="
  M 270.70 208.71
  C 265.86 210.91 267.84 218.62 272.44 219.94
  Q 273.80 220.33 277.42 219.55
  C 285.44 217.80 286.94 219.26 292.55 224.22
  Q 295.64 226.95 300.81 228.31
  C 307.12 229.97 308.04 227.86 312.56 234.18
  Q 316.34 239.48 322.05 242.72
  C 327.11 245.60 332.59 240.32 330.97 235.23
  C 330.13 232.61 327.43 231.23 325.44 229.38
  Q 324.11 228.13 321.67 224.62
  Q 315.44 215.63 303.59 216.02
  A 1.33 1.32 -25.3 0 1 302.71 215.71
  C 298.88 212.44 294.93 208.53 290.18 207.15
  Q 280.39 204.31 270.70 208.71"
/>
<path stroke="#7a7977" vector-effect="non-scaling-stroke" d="
  M 385.60 318.64
  C 383.97 324.24 390.98 328.40 395.72 324.95
  C 399.53 322.19 403.85 318.37 407.70 317.98
  A 1.61 1.55 -32.4 0 1 408.63 318.17
  C 412.57 320.43 417.05 323.02 421.45 319.94
  Q 427.03 316.04 431.85 312.03
  A 2.77 2.76 39.8 0 1 434.99 311.75
  C 441.54 315.50 449.91 320.69 457.46 315.70
  C 468.01 308.73 479.42 311.78 487.93 319.60
  C 491.88 323.23 497.54 320.67 498.14 315.84
  C 498.75 310.94 492.11 305.77 488.31 303.91
  C 476.34 298.08 463.27 296.70 451.62 304.27
  A 1.41 1.40 28.2 0 1 450.85 304.50
  L 448.64 304.50
  A 1.31 1.22 57.7 0 1 448.03 304.34
  C 441.05 300.51 434.72 296.10 426.56 300.28
  Q 424.20 301.49 417.10 307.63
  A 0.89 0.87 36.0 0 1 416.16 307.77
  C 413.77 306.70 411.33 305.41 408.87 305.23
  C 402.37 304.73 387.54 311.98 385.60 318.64"
/>
<path stroke="#7a7977" vector-effect="non-scaling-stroke" d="
  M 377.04 354.29
  C 371.13 361.38 379.84 368.47 385.97 363.44
  Q 390.93 359.35 395.10 357.10
  C 399.21 354.88 404.17 363.66 411.19 358.67
  Q 416.71 354.75 421.23 351.00
  A 2.95 2.93 -51.7 0 1 424.38 350.62
  C 429.08 352.91 434.89 356.99 440.48 356.54
  C 446.21 356.08 449.89 351.44 455.33 350.82
  Q 464.94 349.74 472.84 354.92
  C 474.97 356.31 480.28 362.08 483.80 359.89
  C 490.25 355.88 487.94 350.86 483.44 346.74
  C 478.91 342.60 472.87 340.28 466.97 338.79
  C 457.83 336.48 449.42 337.64 441.63 342.89
  C 440.84 343.41 439.59 343.48 438.68 343.52
  A 1.66 1.64 -31.3 0 1 437.75 343.30
  C 429.21 338.42 422.72 334.13 413.72 340.91
  Q 410.10 343.64 406.55 346.53
  Q 406.13 346.87 405.65 346.61
  C 396.57 341.64 390.35 344.71 382.72 349.78
  Q 378.43 352.63 377.04 354.29"
/>
</g>
<circle fill="#000000" cx="596.45" cy="73.49" r="23.00"/>
<path fill="#000000" d="
  M 162.76 386.28
  C 166.80 383.22 159.90 381.32 158.17 380.86
  Q 150.40 378.82 139.57 375.18
  C 134.58 373.50 133.20 370.20 134.37 365.05
  Q 136.45 355.82 139.63 343.92
  Q 182.13 185.03 197.64 127.97
  C 198.89 123.36 200.07 116.26 206.76 115.52
  C 220.32 114.03 235.57 115.03 249.44 114.01
  C 306.06 109.87 358.84 139.23 398.13 177.10
  Q 398.48 177.44 398.96 177.53
  Q 400.76 177.87 401.44 177.71
  C 440.01 168.42 476.29 166.82 514.72 176.32
  C 517.01 176.89 521.30 176.98 522.97 176.27
  C 566.30 157.81 610.01 140.20 655.00 128.01
  C 676.10 122.29 698.74 117.54 721.95 119.39
  C 752.41 121.82 742.10 148.49 731.28 164.16
  Q 720.83 179.28 707.25 193.01
  C 670.80 229.84 630.47 261.49 587.53 291.78
  Q 582.91 295.04 581.34 300.91
  Q 559.56 382.33 537.52 463.69
  C 534.19 475.96 534.45 480.96 519.34 477.10
  C 478.19 466.58 438.46 461.53 397.50 464.06
  C 373.17 465.57 346.61 470.31 325.33 481.80
  C 320.22 484.56 315.43 484.45 312.10 479.46
  Q 306.20 470.60 299.31 462.34
  A 2.18 2.17 58.4 0 0 296.79 461.73
  C 277.31 470.10 257.99 478.76 238.60 487.24
  A 3.85 3.85 0.0 0 0 236.31 490.32
  Q 235.91 493.65 235.49 496.96
  C 234.24 506.78 227.23 514.08 217.93 516.53
  C 206.85 519.45 198.60 515.28 191.17 507.33
  A 1.79 1.76 -30.8 0 0 189.29 506.87
  C 159.45 517.34 127.15 528.51 97.19 532.97
  C 82.20 535.20 45.15 540.01 41.85 520.43
  C 38.05 497.83 74.83 461.41 89.78 447.53
  Q 124.74 415.09 162.76 386.28
  Z
  M 197.67 322.06
  Q 216.41 327.15 234.45 334.33
  Q 234.99 334.54 235.46 334.22
  Q 302.17 290.12 372.14 251.37
  A 2.43 2.40 83.4 0 0 373.29 249.90
  Q 377.21 235.14 381.38 220.35
  C 382.68 215.74 387.07 213.09 391.26 216.01
  C 394.97 218.58 394.11 222.06 392.91 226.33
  Q 390.82 233.82 388.90 241.52
  Q 388.75 242.11 389.29 241.83
  C 425.89 222.37 462.48 203.38 500.09 185.98
  A 0.29 0.28 -51.6 0 0 500.03 185.44
  C 471.77 179.56 442.92 181.16 414.85 187.27
  Q 406.53 189.08 398.18 190.98
  C 396.69 191.32 394.16 190.27 392.93 189.03
  C 356.40 152.31 306.85 123.25 253.30 125.50
  C 252.56 125.53 251.13 125.38 250.17 125.55
  Q 249.72 125.63 249.60 126.07
  L 197.19 321.22
  Q 197.01 321.88 197.67 322.06
  Z
  M 234.27 130.98
  L 214.39 130.76
  Q 213.71 130.75 213.54 131.41
  L 151.75 361.64
  A 0.20 0.19 16.4 0 0 151.88 361.87
  L 181.55 371.12
  A 0.62 0.61 -53.9 0 0 182.09 371.03
  L 221.42 343.60
  Q 221.75 343.37 221.38 343.23
  Q 206.72 337.62 191.56 333.52
  C 186.72 332.21 181.45 330.37 183.08 324.32
  Q 208.96 228.06 234.79 131.66
  A 0.54 0.54 0.0 0 0 234.27 130.98
  Z
  M 665.97 214.99
  C 682.65 200.04 701.48 181.34 711.01 160.81
  C 716.45 149.10 710.16 138.48 697.82 137.18
  C 675.93 134.86 651.12 141.40 629.74 147.98
  Q 583.97 162.08 539.74 181.67
  Q 539.01 181.99 539.01 182.79
  Q 538.99 184.19 540.62 185.10
  C 547.01 188.65 553.24 191.92 559.47 196.11
  Q 572.57 204.96 586.45 212.55
  C 590.26 214.64 593.47 216.97 596.79 219.49
  C 601.83 223.30 600.59 227.14 599.18 233.25
  Q 594.90 251.73 589.64 269.97
  Q 589.07 271.92 589.38 273.23
  A 1.50 1.50 0.0 0 0 591.70 274.12
  Q 630.67 246.62 665.97 214.99
  Z
  M 345.62 404.38
  C 394.97 385.74 451.93 390.39 501.42 403.42
  A 0.92 0.92 0.0 0 0 502.54 402.77
  L 554.91 207.70
  Q 555.05 207.21 554.61 206.93
  Q 538.86 196.83 521.12 190.83
  Q 520.65 190.67 520.19 190.88
  Q 451.70 222.17 385.69 258.40
  Q 384.08 259.28 383.75 260.51
  Q 364.53 332.23 345.21 404.01
  Q 345.06 404.59 345.62 404.38
  Z
  M 197.35 377.19
  C 242.01 394.40 283.67 419.32 315.41 455.62
  Q 315.76 456.02 315.89 455.51
  Q 319.87 440.37 321.12 436.33
  C 322.63 431.42 327.29 428.56 332.30 430.45
  C 338.41 432.76 338.39 438.10 336.79 443.88
  Q 334.56 451.92 332.35 460.12
  Q 332.19 460.72 332.77 460.51
  C 391.96 438.92 461.09 445.39 521.02 460.79
  A 0.53 0.52 14.7 0 0 521.67 460.42
  L 583.42 230.50
  Q 583.57 229.95 583.07 229.67
  L 565.68 219.58
  A 0.47 0.46 -67.3 0 0 565.00 219.86
  Q 539.61 314.11 514.41 408.14
  C 512.97 413.49 511.74 419.11 504.43 417.19
  C 467.52 407.48 428.10 401.68 390.22 406.57
  C 374.31 408.62 359.89 411.86 345.02 418.55
  C 339.82 420.89 334.25 426.96 329.53 419.39
  C 309.48 387.25 271.70 363.27 237.32 349.54
  A 1.58 1.55 38.4 0 0 235.84 349.70
  L 197.26 376.41
  Q 196.56 376.89 197.35 377.19
  Z
  M 250.16 340.93
  C 280.99 354.56 310.58 374.38 332.29 400.77
  Q 332.70 401.27 332.86 400.65
  L 368.24 268.74
  A 0.20 0.20 0.0 0 0 367.95 268.51
  Q 307.88 302.48 250.10 340.21
  Q 249.47 340.63 250.16 340.93
  Z
  M 283.96 446.77
  C 254.66 421.69 220.47 403.52 184.54 389.89
  Q 181.23 388.64 179.07 389.55
  Q 176.29 390.73 167.10 397.81
  C 150.35 410.71 56.83 484.66 72.43 508.15
  C 80.76 520.67 102.89 517.20 115.51 515.16
  C 136.76 511.73 160.75 504.16 179.09 497.88
  C 184.38 496.07 185.80 496.17 186.92 489.87
  C 190.84 467.88 214.52 461.40 230.44 476.15
  A 1.33 1.32 -23.5 0 0 231.34 476.50
  L 234.10 476.50
  A 1.14 1.03 -54.1 0 0 234.53 476.41
  Q 258.10 466.59 281.17 455.66
  Q 283.81 454.41 286.67 452.59
  A 1.64 1.64 0.0 0 0 287.16 450.31
  Q 285.94 448.47 283.96 446.77
  Z"
/>
<path fill="#f4f2ed" d="
  M 197.67 322.06
  Q 197.01 321.88 197.19 321.22
  L 249.60 126.07
  Q 249.72 125.63 250.17 125.55
  C 251.13 125.38 252.56 125.53 253.30 125.50
  C 306.85 123.25 356.40 152.31 392.93 189.03
  C 394.16 190.27 396.69 191.32 398.18 190.98
  Q 406.53 189.08 414.85 187.27
  C 442.92 181.16 471.77 179.56 500.03 185.44
  A 0.29 0.28 -51.6 0 1 500.09 185.98
  C 462.48 203.38 425.89 222.37 389.29 241.83
  Q 388.75 242.11 388.90 241.52
  Q 390.82 233.82 392.91 226.33
  C 394.11 222.06 394.97 218.58 391.26 216.01
  C 387.07 213.09 382.68 215.74 381.38 220.35
  Q 377.21 235.14 373.29 249.90
  A 2.43 2.40 83.4 0 1 372.14 251.37
  Q 302.17 290.12 235.46 334.22
  Q 234.99 334.54 234.45 334.33
  Q 216.41 327.15 197.67 322.06
  Z
  M 270.10 166.42
  C 262.72 160.60 255.60 168.85 260.47 174.53
  C 267.62 182.87 280.66 189.60 291.31 188.70
  C 298.36 188.10 303.14 189.04 308.52 193.42
  A 1.84 1.81 10.2 0 1 309.08 194.21
  C 311.31 200.43 315.11 202.59 321.72 204.28
  C 325.00 205.11 334.74 206.63 336.59 209.23
  C 339.48 213.28 345.89 220.48 351.18 220.81
  C 356.82 221.16 360.02 213.29 355.73 210.03
  C 353.45 208.30 351.33 206.87 349.47 204.59
  C 346.96 201.51 344.76 198.45 341.14 196.68
  C 335.29 193.81 328.70 193.00 322.50 191.52
  A 1.04 1.04 0.0 0 1 321.80 190.94
  C 316.59 179.42 303.67 174.77 291.64 175.65
  C 282.19 176.34 277.04 171.88 270.10 166.42
  Z
  M 270.70 208.71
  C 265.86 210.91 267.84 218.62 272.44 219.94
  Q 273.80 220.33 277.42 219.55
  C 285.44 217.80 286.94 219.26 292.55 224.22
  Q 295.64 226.95 300.81 228.31
  C 307.12 229.97 308.04 227.86 312.56 234.18
  Q 316.34 239.48 322.05 242.72
  C 327.11 245.60 332.59 240.32 330.97 235.23
  C 330.13 232.61 327.43 231.23 325.44 229.38
  Q 324.11 228.13 321.67 224.62
  Q 315.44 215.63 303.59 216.02
  A 1.33 1.32 -25.3 0 1 302.71 215.71
  C 298.88 212.44 294.93 208.53 290.18 207.15
  Q 280.39 204.31 270.70 208.71
  Z"
/>
<path fill="#f4f2ed" d="
  M 214.39 130.76
  L 234.27 130.98
  A 0.54 0.54 0.0 0 1 234.79 131.66
  Q 208.96 228.06 183.08 324.32
  C 181.45 330.37 186.72 332.21 191.56 333.52
  Q 206.72 337.62 221.38 343.23
  Q 221.75 343.37 221.42 343.60
  L 182.09 371.03
  A 0.62 0.61 -53.9 0 1 181.55 371.12
  L 151.88 361.87
  A 0.20 0.19 16.4 0 1 151.75 361.64
  L 213.54 131.41
  Q 213.71 130.75 214.39 130.76
  Z"
/>
<path fill="#000000" d="
  M 260.47 174.53
  C 255.60 168.85 262.72 160.60 270.10 166.42
  C 277.04 171.88 282.19 176.34 291.64 175.65
  C 303.67 174.77 316.59 179.42 321.80 190.94
  A 1.04 1.04 0.0 0 0 322.50 191.52
  C 328.70 193.00 335.29 193.81 341.14 196.68
  C 344.76 198.45 346.96 201.51 349.47 204.59
  C 351.33 206.87 353.45 208.30 355.73 210.03
  C 360.02 213.29 356.82 221.16 351.18 220.81
  C 345.89 220.48 339.48 213.28 336.59 209.23
  C 334.74 206.63 325.00 205.11 321.72 204.28
  C 315.11 202.59 311.31 200.43 309.08 194.21
  A 1.84 1.81 10.2 0 0 308.52 193.42
  C 303.14 189.04 298.36 188.10 291.31 188.70
  C 280.66 189.60 267.62 182.87 260.47 174.53
  Z"
/>
<path fill="#f4f2ed" d="
  M 501.42 403.42
  C 451.93 390.39 394.97 385.74 345.62 404.38
  Q 345.06 404.59 345.21 404.01
  Q 364.53 332.23 383.75 260.51
  Q 384.08 259.28 385.69 258.40
  Q 451.70 222.17 520.19 190.88
  Q 520.65 190.67 521.12 190.83
  Q 538.86 196.83 554.61 206.93
  Q 555.05 207.21 554.91 207.70
  L 502.54 402.77
  A 0.92 0.92 0.0 0 1 501.42 403.42
  Z
  M 385.60 318.64
  C 383.97 324.24 390.98 328.40 395.72 324.95
  C 399.53 322.19 403.85 318.37 407.70 317.98
  A 1.61 1.55 -32.4 0 1 408.63 318.17
  C 412.57 320.43 417.05 323.02 421.45 319.94
  Q 427.03 316.04 431.85 312.03
  A 2.77 2.76 39.8 0 1 434.99 311.75
  C 441.54 315.50 449.91 320.69 457.46 315.70
  C 468.01 308.73 479.42 311.78 487.93 319.60
  C 491.88 323.23 497.54 320.67 498.14 315.84
  C 498.75 310.94 492.11 305.77 488.31 303.91
  C 476.34 298.08 463.27 296.70 451.62 304.27
  A 1.41 1.40 28.2 0 1 450.85 304.50
  L 448.64 304.50
  A 1.31 1.22 57.7 0 1 448.03 304.34
  C 441.05 300.51 434.72 296.10 426.56 300.28
  Q 424.20 301.49 417.10 307.63
  A 0.89 0.87 36.0 0 1 416.16 307.77
  C 413.77 306.70 411.33 305.41 408.87 305.23
  C 402.37 304.73 387.54 311.98 385.60 318.64
  Z
  M 377.04 354.29
  C 371.13 361.38 379.84 368.47 385.97 363.44
  Q 390.93 359.35 395.10 357.10
  C 399.21 354.88 404.17 363.66 411.19 358.67
  Q 416.71 354.75 421.23 351.00
  A 2.95 2.93 -51.7 0 1 424.38 350.62
  C 429.08 352.91 434.89 356.99 440.48 356.54
  C 446.21 356.08 449.89 351.44 455.33 350.82
  Q 464.94 349.74 472.84 354.92
  C 474.97 356.31 480.28 362.08 483.80 359.89
  C 490.25 355.88 487.94 350.86 483.44 346.74
  C 478.91 342.60 472.87 340.28 466.97 338.79
  C 457.83 336.48 449.42 337.64 441.63 342.89
  C 440.84 343.41 439.59 343.48 438.68 343.52
  A 1.66 1.64 -31.3 0 1 437.75 343.30
  C 429.21 338.42 422.72 334.13 413.72 340.91
  Q 410.10 343.64 406.55 346.53
  Q 406.13 346.87 405.65 346.61
  C 396.57 341.64 390.35 344.71 382.72 349.78
  Q 378.43 352.63 377.04 354.29
  Z"
/>
<path fill="#000000" d="
  M 272.44 219.94
  C 267.84 218.62 265.86 210.91 270.70 208.71
  Q 280.39 204.31 290.18 207.15
  C 294.93 208.53 298.88 212.44 302.71 215.71
  A 1.33 1.32 -25.3 0 0 303.59 216.02
  Q 315.44 215.63 321.67 224.62
  Q 324.11 228.13 325.44 229.38
  C 327.43 231.23 330.13 232.61 330.97 235.23
  C 332.59 240.32 327.11 245.60 322.05 242.72
  Q 316.34 239.48 312.56 234.18
  C 308.04 227.86 307.12 229.97 300.81 228.31
  Q 295.64 226.95 292.55 224.22
  C 286.94 219.26 285.44 217.80 277.42 219.55
  Q 273.80 220.33 272.44 219.94
  Z"
/>
<path fill="#f4f2ed" d="
  M 315.41 455.62
  C 283.67 419.32 242.01 394.40 197.35 377.19
  Q 196.56 376.89 197.26 376.41
  L 235.84 349.70
  A 1.58 1.55 38.4 0 1 237.32 349.54
  C 271.70 363.27 309.48 387.25 329.53 419.39
  C 334.25 426.96 339.82 420.89 345.02 418.55
  C 359.89 411.86 374.31 408.62 390.22 406.57
  C 428.10 401.68 467.52 407.48 504.43 417.19
  C 511.74 419.11 512.97 413.49 514.41 408.14
  Q 539.61 314.11 565.00 219.86
  A 0.47 0.46 -67.3 0 1 565.68 219.58
  L 583.07 229.67
  Q 583.57 229.95 583.42 230.50
  L 521.67 460.42
  A 0.53 0.52 14.7 0 1 521.02 460.79
  C 461.09 445.39 391.96 438.92 332.77 460.51
  Q 332.19 460.72 332.35 460.12
  Q 334.56 451.92 336.79 443.88
  C 338.39 438.10 338.41 432.76 332.30 430.45
  C 327.29 428.56 322.63 431.42 321.12 436.33
  Q 319.87 440.37 315.89 455.51
  Q 315.76 456.02 315.41 455.62
  Z"
/>
<path fill="#f4f2ed" d="
  M 332.29 400.77
  C 310.58 374.38 280.99 354.56 250.16 340.93
  Q 249.47 340.63 250.10 340.21
  Q 307.88 302.48 367.95 268.51
  A 0.20 0.20 0.0 0 1 368.24 268.74
  L 332.86 400.65
  Q 332.70 401.27 332.29 400.77
  Z"
/>
<path fill="#000000" d="
  M 395.72 324.95
  C 390.98 328.40 383.97 324.24 385.60 318.64
  C 387.54 311.98 402.37 304.73 408.87 305.23
  C 411.33 305.41 413.77 306.70 416.16 307.77
  A 0.89 0.87 36.0 0 0 417.10 307.63
  Q 424.20 301.49 426.56 300.28
  C 434.72 296.10 441.05 300.51 448.03 304.34
  A 1.31 1.22 57.7 0 0 448.64 304.50
  L 450.85 304.50
  A 1.41 1.40 28.2 0 0 451.62 304.27
  C 463.27 296.70 476.34 298.08 488.31 303.91
  C 492.11 305.77 498.75 310.94 498.14 315.84
  C 497.54 320.67 491.88 323.23 487.93 319.60
  C 479.42 311.78 468.01 308.73 457.46 315.70
  C 449.91 320.69 441.54 315.50 434.99 311.75
  A 2.77 2.76 39.8 0 0 431.85 312.03
  Q 427.03 316.04 421.45 319.94
  C 417.05 323.02 412.57 320.43 408.63 318.17
  A 1.61 1.55 -32.4 0 0 407.70 317.98
  C 403.85 318.37 399.53 322.19 395.72 324.95
  Z"
/>
<path fill="#000000" d="
  M 385.97 363.44
  C 379.84 368.47 371.13 361.38 377.04 354.29
  Q 378.43 352.63 382.72 349.78
  C 390.35 344.71 396.57 341.64 405.65 346.61
  Q 406.13 346.87 406.55 346.53
  Q 410.10 343.64 413.72 340.91
  C 422.72 334.13 429.21 338.42 437.75 343.30
  A 1.66 1.64 -31.3 0 0 438.68 343.52
  C 439.59 343.48 440.84 343.41 441.63 342.89
  C 449.42 337.64 457.83 336.48 466.97 338.79
  C 472.87 340.28 478.91 342.60 483.44 346.74
  C 487.94 350.86 490.25 355.88 483.80 359.89
  C 480.28 362.08 474.97 356.31 472.84 354.92
  Q 464.94 349.74 455.33 350.82
  C 449.89 351.44 446.21 356.08 440.48 356.54
  C 434.89 356.99 429.08 352.91 424.38 350.62
  A 2.95 2.93 -51.7 0 0 421.23 351.00
  Q 416.71 354.75 411.19 358.67
  C 404.17 363.66 399.21 354.88 395.10 357.10
  Q 390.93 359.35 385.97 363.44
  Z"
/>
</svg>
